<svg fill="none" viewBox="0 0 56 56">
  <path fill="#fff" fill-rule="evenodd" d="M28 0a28 28 0 110 56 28 28 0 010-56zm4.56 29.87c-.2-.2-.32-.2-.53 0-.61.54-1.25 1.07-1.88 1.6a3.74 3.74 0 01-4.98-.02l-1.88-1.6c-.17-.16-.28-.16-.45 0l-9.1 8.37c-.07.07-.2.12-.17.28h28.21c-.02-.16-.12-.21-.2-.28l-2.72-2.52-6.3-5.83zm11.46-10.18c-.07-.03-.13 0-.18.06l-.07.07-.03.03-9.29 7.95c-.26.22-.23.33 0 .53l6.03 5.57 3.17 2.93c.2.19.3.17.36-.09.08-.27.08-.54.08-.8V20c0-.1.05-.26-.07-.31zm-32.66 0l-.05.02c-.18.1-.09.46-.09.7v15.15c0 .33.02.66.06.98.02.15.02.36.18.4.13.05.22-.13.32-.22l9.15-8.4c.22-.2.23-.3 0-.5l-9.06-7.73c-.18-.15-.37-.48-.56-.38l.05-.02zm16.3-2.19H13.81c-.24 0-.49 0-.72.07-.08.03-.2.03-.22.13-.02.09.08.13.14.18l1.28 1.09 12.38 10.58c.8.68 1.25.66 2.04-.01L41.37 18.7l1.15-1c-.34-.2-.68-.2-1-.2H13.8h13.85z" clip-rule="evenodd"/>
</svg>
