<svg fill="none" viewBox="0 0 56 56">
  <path fill="#fff" fill-rule="evenodd" d="M28 0a28 28 0 110 56 28 28 0 010-56zm13.64 15.02c-.28.04-.63.04-.94.15-.75.26-1.48.57-2.2.87l-1.2.5-2.3.92-1.22.52c-.75.3-1.5.6-2.24.92l-1.2.5-1.76.7-1.24.53-1.85.73-1.15.49-2.48 1-1.04.43-2.4.94-1.27.52-1.75.71-1.2.5-2.25.9-1.38.54-.44.19c-.52.21-1.03.45-1.46.83-.24.21-.46.45-.5.79-.04.38.26.88.64 1.04.4.17.83.3 1.26.43 1.07.34 2.13.7 3.21 1.02.75.22 1.51.42 2.27.62a4.8 4.8 0 002.1.09 3.8 3.8 0 001.6-.65c.78-.52 1.57-1.01 2.35-1.52l2.33-1.55 1.97-1.3 2.04-1.36 1.58-1.08c.87-.58 1.73-1.16 2.6-1.72a6.7 6.7 0 012.01-.98c.21-.05.43-.07.51.08.09.15.1.4.02.56-.22.4-.45.8-.76 1.12-.7.74-1.43 1.43-2.16 2.13-.9.86-1.82 1.72-2.74 2.57l-3.7 3.43c-.5.46-1.02.91-1.46 1.43-.36.43-.45.95-.19 1.5.18.37.45.66.76.9a80.13 80.13 0 003.33 2.42l2.1 1.38 2.02 1.31c.57.38 1.12.77 1.7 1.12.52.32 1.04.64 1.6.9.45.2.94.32 1.42.48.59.2 1.18.2 1.72-.1.65-.36 1-.97 1.16-1.66.16-.64.23-1.3.33-1.97l.14-.98.38-2.22.13-.82c.09-.54.2-1.08.28-1.62l.24-1.71.5-2.97.13-.96.38-2.2c.09-.54.15-1.1.23-1.65l.4-2.5.23-1.5.39-2.61.13-1.16a1.9 1.9 0 00-.26-1.28c-.31-.52-.84-.6-1.45-.64z" clip-rule="evenodd"/>
</svg>
